<?xml version="1.0" standalone="no"?>
<!DOCTYPE svg PUBLIC "-//W3C//DTD SVG 20010904//EN"
 "http://www.w3.org/TR/2001/REC-SVG-20010904/DTD/svg10.dtd">
<svg version="1.0" xmlns="http://www.w3.org/2000/svg"
 width="532.000000pt" height="532.000000pt" viewBox="0 0 532.000000 532.000000"
 preserveAspectRatio="xMidYMid meet">
<metadata>
Created by potrace 1.11, written by Peter Selinger 2001-2013
</metadata>
<g transform="translate(0.000000,532.000000) scale(0.100000,-0.100000)"
fill="#000000" stroke="none">
<path d="M2695 4948 c-60 -9 -128 -20 -149 -23 -22 -4 -83 -18 -135 -31 -485
-126 -898 -345 -1326 -703 -148 -124 -461 -444 -499 -510 -5 -8 -18 -25 -28
-36 -68 -72 -223 -339 -277 -477 -36 -91 -81 -260 -90 -338 -12 -111 -4 -350
14 -402 2 -7 7 -24 9 -38 9 -47 45 -160 60 -192 9 -17 16 -34 16 -38 0 -10 86
-166 118 -215 95 -144 255 -308 416 -427 65 -49 289 -188 301 -188 2 0 36 -15
77 -34 82 -37 212 -86 303 -112 80 -24 75 -22 115 -30 52 -9 70 -22 70 -49 0
-24 2 -31 36 -115 98 -243 330 -379 657 -385 148 -2 250 9 427 46 195 42 342
88 555 177 89 37 306 150 405 211 444 275 844 649 1091 1022 137 207 239 456
267 654 9 65 9 306 0 370 -51 351 -279 704 -613 951 -55 41 -104 78 -110 82
-5 4 -50 31 -100 59 -200 114 -367 180 -622 243 -35 9 -44 16 -49 38 -55 258
-233 429 -509 487 -110 23 -294 25 -430 3z m64 -258 c73 -32 135 -104 161
-187 32 -105 33 -104 -66 -132 -258 -71 -494 -200 -764 -418 -69 -56 -134
-109 -145 -119 -12 -11 -63 -57 -115 -104 -52 -47 -100 -89 -106 -95 -6 -5
-53 -48 -104 -95 -136 -125 -152 -141 -198 -201 -96 -128 -122 -248 -72 -339
25 -44 26 -45 82 -48 72 -4 160 25 247 82 70 45 121 90 267 233 223 219 514
409 762 497 91 32 94 32 82 0 -13 -34 -168 -345 -179 -359 -5 -5 -20 -30 -33
-55 -55 -99 -74 -131 -161 -270 -112 -178 -212 -327 -394 -580 -77 -107 -160
-224 -185 -260 -168 -243 -261 -370 -269 -370 -5 0 -45 26 -89 57 -43 32 -146
105 -227 163 -163 115 -179 129 -246 212 -70 87 -146 233 -163 313 -48 216
-37 380 38 600 25 75 134 298 170 350 35 49 159 214 174 231 10 12 30 36 44
54 85 112 333 361 460 463 256 203 521 345 730 391 94 20 233 14 299 -14z
m1168 -1109 c92 -66 192 -137 222 -158 175 -124 307 -332 347 -548 10 -55 12
-242 3 -285 -4 -19 -10 -52 -13 -72 -19 -123 -122 -366 -221 -519 -48 -73
-201 -270 -279 -359 -338 -385 -711 -651 -1061 -756 -110 -32 -282 -42 -356
-20 -130 40 -205 115 -244 244 -16 51 -15 54 17 59 104 16 295 82 432 148 163
80 394 237 549 373 569 504 627 566 664 705 23 87 1 183 -51 219 -18 12 -132
0 -186 -21 -100 -38 -161 -84 -335 -252 -101 -97 -183 -170 -276 -244 -75 -59
-237 -158 -344 -211 -134 -65 -338 -139 -343 -124 -2 5 8 27 22 49 14 22 26
43 26 45 0 3 39 71 86 153 47 81 94 162 105 180 10 17 29 50 43 72 15 22 26
45 26 51 0 5 5 10 10 10 6 0 10 4 10 9 0 5 44 84 99 174 100 168 178 276 341
472 50 61 189 248 308 417 119 170 220 308 224 308 4 0 83 -54 175 -119z"/>
</g>
</svg>
